<svg width="44" height="103" viewBox="0 0 44 103" fill="none" xmlns="http://www.w3.org/2000/svg">
<g filter="url(#filter0_d_61_126)">
<rect width="44" height="44" rx="22" fill="#FFEED5" shape-rendering="crispEdges"/>
<path d="M28 32C27.1667 32 26.4583 31.7083 25.875 31.125C25.2917 30.5417 25 29.8333 25 29C25 28.8833 25.0083 28.7623 25.025 28.637C25.0417 28.5117 25.0667 28.3993 25.1 28.3L18.05 24.2C17.7667 24.45 17.45 24.646 17.1 24.788C16.75 24.93 16.3833 25.0007 16 25C15.1667 25 14.4583 24.7083 13.875 24.125C13.2917 23.5417 13 22.8333 13 22C13 21.1667 13.2917 20.4583 13.875 19.875C14.4583 19.2917 15.1667 19 16 19C16.3833 19 16.75 19.071 17.1 19.213C17.45 19.355 17.7667 19.5507 18.05 19.8L25.1 15.7C25.0667 15.6 25.0417 15.4877 25.025 15.363C25.0083 15.2383 25 15.1173 25 15C25 14.1667 25.2917 13.4583 25.875 12.875C26.4583 12.2917 27.1667 12 28 12C28.8333 12 29.5417 12.2917 30.125 12.875C30.7083 13.4583 31 14.1667 31 15C31 15.8333 30.7083 16.5417 30.125 17.125C29.5417 17.7083 28.8333 18 28 18C27.6167 18 27.25 17.9293 26.9 17.788C26.55 17.6467 26.2333 17.4507 25.95 17.2L18.9 21.3C18.9333 21.4 18.9583 21.5127 18.975 21.638C18.9917 21.7633 19 21.884 19 22C19 22.116 18.9917 22.237 18.975 22.363C18.9583 22.489 18.9333 22.6013 18.9 22.7L25.95 26.8C26.2333 26.55 26.55 26.3543 26.9 26.213C27.25 26.0717 27.6167 26.0007 28 26C28.8333 26 29.5417 26.2917 30.125 26.875C30.7083 27.4583 31 28.1667 31 29C31 29.8333 30.7083 30.5417 30.125 31.125C29.5417 31.7083 28.8333 32 28 32Z" fill="black"/>
</g>
<g filter="url(#filter1_d_61_126)">
<rect y="59" width="44" height="44" rx="22" fill="#FFEED5" shape-rendering="crispEdges"/>
<path d="M21.875 86.5V77.3312L18.95 80.2562L17.375 78.625L23 73L28.625 78.625L27.05 80.2562L24.125 77.3312V86.5H21.875ZM14 91V85.375H16.25V88.75H29.75V85.375H32V91H14Z" fill="black"/>
</g>
<defs>
<filter id="filter0_d_61_126" x="-4" y="0" width="52" height="52" filterUnits="userSpaceOnUse" color-interpolation-filters="sRGB">
<feFlood flood-opacity="0" result="BackgroundImageFix"/>
<feColorMatrix in="SourceAlpha" type="matrix" values="0 0 0 0 0 0 0 0 0 0 0 0 0 0 0 0 0 0 127 0" result="hardAlpha"/>
<feOffset dy="4"/>
<feGaussianBlur stdDeviation="2"/>
<feComposite in2="hardAlpha" operator="out"/>
<feColorMatrix type="matrix" values="0 0 0 0 0 0 0 0 0 0 0 0 0 0 0 0 0 0 0.05 0"/>
<feBlend mode="normal" in2="BackgroundImageFix" result="effect1_dropShadow_61_126"/>
<feBlend mode="normal" in="SourceGraphic" in2="effect1_dropShadow_61_126" result="shape"/>
</filter>
<filter id="filter1_d_61_126" x="-4" y="59" width="52" height="52" filterUnits="userSpaceOnUse" color-interpolation-filters="sRGB">
<feFlood flood-opacity="0" result="BackgroundImageFix"/>
<feColorMatrix in="SourceAlpha" type="matrix" values="0 0 0 0 0 0 0 0 0 0 0 0 0 0 0 0 0 0 127 0" result="hardAlpha"/>
<feOffset dy="4"/>
<feGaussianBlur stdDeviation="2"/>
<feComposite in2="hardAlpha" operator="out"/>
<feColorMatrix type="matrix" values="0 0 0 0 0 0 0 0 0 0 0 0 0 0 0 0 0 0 0.05 0"/>
<feBlend mode="normal" in2="BackgroundImageFix" result="effect1_dropShadow_61_126"/>
<feBlend mode="normal" in="SourceGraphic" in2="effect1_dropShadow_61_126" result="shape"/>
</filter>
</defs>
</svg>
