<svg width="135" height="130" viewBox="0 0 135 130" fill="none" xmlns="http://www.w3.org/2000/svg">
<g filter="url(#filter0_f_61_91)">
<circle cx="71.5" cy="64.5" r="63.5" fill="black" fill-opacity="0.5"/>
</g>
<circle cx="71.5" cy="64.5" r="63.5" fill="#FFF2F1"/>
<path d="M34.24 71.12V66.76L47.44 49H54.24L41.32 66.76L38.16 65.84H60.2V71.12H34.24ZM49.32 77V71.12L49.52 65.84V60.6H55.64V77H49.32ZM74.1381 77.48C71.8448 77.48 69.7915 76.92 67.9781 75.8C66.1648 74.6533 64.7381 73 63.6981 70.84C62.6581 68.68 62.1381 66.0667 62.1381 63C62.1381 59.9333 62.6581 57.32 63.6981 55.16C64.7381 53 66.1648 51.36 67.9781 50.24C69.7915 49.0933 71.8448 48.52 74.1381 48.52C76.4581 48.52 78.5115 49.0933 80.2981 50.24C82.1115 51.36 83.5381 53 84.5781 55.16C85.6181 57.32 86.1381 59.9333 86.1381 63C86.1381 66.0667 85.6181 68.68 84.5781 70.84C83.5381 73 82.1115 74.6533 80.2981 75.8C78.5115 76.92 76.4581 77.48 74.1381 77.48ZM74.1381 72C75.2315 72 76.1781 71.6933 76.9781 71.08C77.8048 70.4667 78.4448 69.4933 78.8981 68.16C79.3781 66.8267 79.6181 65.1067 79.6181 63C79.6181 60.8933 79.3781 59.1733 78.8981 57.84C78.4448 56.5067 77.8048 55.5333 76.9781 54.92C76.1781 54.3067 75.2315 54 74.1381 54C73.0715 54 72.1248 54.3067 71.2981 54.92C70.4981 55.5333 69.8581 56.5067 69.3781 57.84C68.9248 59.1733 68.6981 60.8933 68.6981 63C68.6981 65.1067 68.9248 66.8267 69.3781 68.16C69.8581 69.4933 70.4981 70.4667 71.2981 71.08C72.1248 71.6933 73.0715 72 74.1381 72ZM93.3266 77L112.447 49H117.207L98.0866 77H93.3266ZM95.7666 64.12C94.4066 64.12 93.2066 63.8133 92.1666 63.2C91.1266 62.56 90.2999 61.6667 89.6866 60.52C89.0999 59.3467 88.8066 57.9733 88.8066 56.4C88.8066 54.8267 89.0999 53.4667 89.6866 52.32C90.2999 51.1733 91.1266 50.28 92.1666 49.64C93.2066 49 94.4066 48.68 95.7666 48.68C97.1266 48.68 98.3266 49 99.3666 49.64C100.407 50.28 101.22 51.1733 101.807 52.32C102.393 53.4667 102.687 54.8267 102.687 56.4C102.687 57.9733 102.393 59.3467 101.807 60.52C101.22 61.6667 100.407 62.56 99.3666 63.2C98.3266 63.8133 97.1266 64.12 95.7666 64.12ZM95.7666 60.84C96.6466 60.84 97.3532 60.48 97.8866 59.76C98.4199 59.0133 98.6866 57.8933 98.6866 56.4C98.6866 54.9067 98.4199 53.8 97.8866 53.08C97.3532 52.3333 96.6466 51.96 95.7666 51.96C94.9132 51.96 94.2066 52.3333 93.6466 53.08C93.1132 53.8 92.8466 54.9067 92.8466 56.4C92.8466 57.8667 93.1132 58.9733 93.6466 59.72C94.2066 60.4667 94.9132 60.84 95.7666 60.84ZM114.767 77.32C113.433 77.32 112.233 77.0133 111.167 76.4C110.127 75.76 109.313 74.8667 108.727 73.72C108.14 72.5467 107.847 71.1733 107.847 69.6C107.847 68.0267 108.14 66.6667 108.727 65.52C109.313 64.3733 110.127 63.48 111.167 62.84C112.233 62.2 113.433 61.88 114.767 61.88C116.153 61.88 117.367 62.2 118.407 62.84C119.447 63.48 120.26 64.3733 120.847 65.52C121.433 66.6667 121.727 68.0267 121.727 69.6C121.727 71.1733 121.433 72.5467 120.847 73.72C120.26 74.8667 119.447 75.76 118.407 76.4C117.367 77.0133 116.153 77.32 114.767 77.32ZM114.767 74.04C115.647 74.04 116.353 73.68 116.887 72.96C117.42 72.2133 117.687 71.0933 117.687 69.6C117.687 68.1333 117.42 67.0267 116.887 66.28C116.353 65.5333 115.647 65.16 114.767 65.16C113.913 65.16 113.207 65.5333 112.647 66.28C112.113 67 111.847 68.1067 111.847 69.6C111.847 71.0933 112.113 72.2133 112.647 72.96C113.207 73.68 113.913 74.04 114.767 74.04Z" fill="black"/>
<path d="M41.0352 125.421C27.8066 120.174 16.6655 110.731 9.32211 98.5406C1.97871 86.3505 -1.16113 72.0872 0.384521 57.9403C1.93018 43.7933 8.07593 30.5446 17.8784 20.2278C27.6808 9.91094 40.5982 3.09622 54.6477 0.829681L55.9338 8.80183C43.6298 10.7868 32.3172 16.7549 23.7325 25.79C15.1479 34.8251 9.76561 46.4279 8.41197 58.8173C7.05834 71.2067 9.80812 83.698 16.2392 94.3737C22.6703 105.049 32.4273 113.32 44.0124 117.915L41.0352 125.421Z" fill="#E33629"/>
<defs>
<filter id="filter0_f_61_91" x="4" y="-3" width="135" height="135" filterUnits="userSpaceOnUse" color-interpolation-filters="sRGB">
<feFlood flood-opacity="0" result="BackgroundImageFix"/>
<feBlend mode="normal" in="SourceGraphic" in2="BackgroundImageFix" result="shape"/>
<feGaussianBlur stdDeviation="2" result="effect1_foregroundBlur_61_91"/>
</filter>
</defs>
</svg>
