<svg width="23" height="24" viewBox="0 0 23 24" fill="none" xmlns="http://www.w3.org/2000/svg">
<path d="M5.6 12L10.4 16L16.8 7.99999M11.2 23.2C9.7292 23.2 8.27279 22.9103 6.91395 22.3474C5.5551 21.7846 4.32042 20.9596 3.2804 19.9196C2.24039 18.8796 1.4154 17.6449 0.852549 16.286C0.289697 14.9272 0 13.4708 0 12C0 10.5292 0.289697 9.07278 0.852549 7.71393C1.4154 6.35509 2.24039 5.12041 3.2804 4.08039C4.32042 3.04038 5.5551 2.21539 6.91395 1.65254C8.27279 1.08968 9.7292 0.799988 11.2 0.799988C14.1704 0.799988 17.0192 1.97998 19.1196 4.08039C21.22 6.1808 22.4 9.02956 22.4 12C22.4 14.9704 21.22 17.8192 19.1196 19.9196C17.0192 22.02 14.1704 23.2 11.2 23.2Z" stroke="#319F43" stroke-width="2"/>
</svg>
